<mxfile host="65bd71144e">
    <diagram id="Ybbv40jDN7X9S40sMps7" name="Page-1">
        <mxGraphModel dx="820" dy="516" grid="1" gridSize="10" guides="1" tooltips="1" connect="1" arrows="1" fold="1" page="1" pageScale="1" pageWidth="827" pageHeight="1169" math="0" shadow="0">
            <root>
                <mxCell id="0"/>
                <mxCell id="1" parent="0"/>
                <mxCell id="2" value="model" style="shape=folder;fontStyle=1;tabWidth=110;tabHeight=30;tabPosition=left;html=1;boundedLbl=1;labelInHeader=1;container=1;collapsible=0;recursiveResize=0;" parent="1" vertex="1">
                    <mxGeometry y="20" width="1000" height="1060" as="geometry"/>
                </mxCell>
                <mxCell id="6" value="cah" style="shape=folder;fontStyle=1;tabWidth=110;tabHeight=30;tabPosition=left;html=1;boundedLbl=1;labelInHeader=1;container=1;collapsible=0;recursiveResize=0;" parent="2" vertex="1">
                    <mxGeometry x="240" y="50" width="700" height="390" as="geometry"/>
                </mxCell>
                <mxCell id="20" value="" style="edgeStyle=orthogonalEdgeStyle;orthogonalLoop=1;jettySize=auto;html=1;curved=1;" parent="6" source="11" target="16" edge="1">
                    <mxGeometry relative="1" as="geometry"/>
                </mxCell>
                <mxCell id="25" value="" style="edgeStyle=orthogonalEdgeStyle;curved=1;orthogonalLoop=1;jettySize=auto;html=1;entryX=0;entryY=0.5;entryDx=0;entryDy=0;" parent="6" source="11" target="22" edge="1">
                    <mxGeometry relative="1" as="geometry"/>
                </mxCell>
                <mxCell id="11" value="cahPlayer" style="swimlane;fontStyle=1;align=center;verticalAlign=top;childLayout=stackLayout;horizontal=1;startSize=26;horizontalStack=0;resizeParent=1;resizeParentMax=0;resizeLast=0;collapsible=1;marginBottom=0;" parent="6" vertex="1">
                    <mxGeometry x="20" y="40" width="160" height="134" as="geometry"/>
                </mxCell>
                <mxCell id="12" value="- hand:List&lt;Card&gt;&#10;- isHost" style="text;strokeColor=none;fillColor=none;align=left;verticalAlign=top;spacingLeft=4;spacingRight=4;overflow=hidden;rotatable=0;points=[[0,0.5],[1,0.5]];portConstraint=eastwest;" parent="11" vertex="1">
                    <mxGeometry y="26" width="160" height="74" as="geometry"/>
                </mxCell>
                <mxCell id="13" value="" style="line;strokeWidth=1;fillColor=none;align=left;verticalAlign=middle;spacingTop=-1;spacingLeft=3;spacingRight=3;rotatable=0;labelPosition=right;points=[];portConstraint=eastwest;" parent="11" vertex="1">
                    <mxGeometry y="100" width="160" height="8" as="geometry"/>
                </mxCell>
                <mxCell id="14" value="+ method(type): type" style="text;strokeColor=none;fillColor=none;align=left;verticalAlign=top;spacingLeft=4;spacingRight=4;overflow=hidden;rotatable=0;points=[[0,0.5],[1,0.5]];portConstraint=eastwest;" parent="11" vertex="1">
                    <mxGeometry y="108" width="160" height="26" as="geometry"/>
                </mxCell>
                <mxCell id="35" value="" style="edgeStyle=orthogonalEdgeStyle;curved=1;orthogonalLoop=1;jettySize=auto;html=1;" parent="6" source="16" target="31" edge="1">
                    <mxGeometry relative="1" as="geometry"/>
                </mxCell>
                <mxCell id="16" value="cahCard" style="swimlane;fontStyle=1;align=center;verticalAlign=top;childLayout=stackLayout;horizontal=1;startSize=26;horizontalStack=0;resizeParent=1;resizeParentMax=0;resizeLast=0;collapsible=1;marginBottom=0;" parent="6" vertex="1">
                    <mxGeometry x="20" y="200" width="160" height="164" as="geometry"/>
                </mxCell>
                <mxCell id="17" value="- cardId :UUID/int&#10;- cardText: String&#10;- cardSet :String&#10;- cardImage_url: String&#10;" style="text;strokeColor=none;fillColor=none;align=left;verticalAlign=top;spacingLeft=4;spacingRight=4;overflow=hidden;rotatable=0;points=[[0,0.5],[1,0.5]];portConstraint=eastwest;" parent="16" vertex="1">
                    <mxGeometry y="26" width="160" height="104" as="geometry"/>
                </mxCell>
                <mxCell id="18" value="" style="line;strokeWidth=1;fillColor=none;align=left;verticalAlign=middle;spacingTop=-1;spacingLeft=3;spacingRight=3;rotatable=0;labelPosition=right;points=[];portConstraint=eastwest;" parent="16" vertex="1">
                    <mxGeometry y="130" width="160" height="8" as="geometry"/>
                </mxCell>
                <mxCell id="19" value="@Data Lombok" style="text;strokeColor=none;fillColor=none;align=left;verticalAlign=top;spacingLeft=4;spacingRight=4;overflow=hidden;rotatable=0;points=[[0,0.5],[1,0.5]];portConstraint=eastwest;" parent="16" vertex="1">
                    <mxGeometry y="138" width="160" height="26" as="geometry"/>
                </mxCell>
                <mxCell id="21" value="cahGameServer" style="swimlane;fontStyle=1;align=center;verticalAlign=top;childLayout=stackLayout;horizontal=1;startSize=26;horizontalStack=0;resizeParent=1;resizeParentMax=0;resizeLast=0;collapsible=1;marginBottom=0;" parent="6" vertex="1">
                    <mxGeometry x="400" y="40" width="280" height="320" as="geometry"/>
                </mxCell>
                <mxCell id="22" value="- currentDealer : int&#10;- currentQuestion : CardQuestion&#10;- playerList : {player: Player, seat: int}[]&#10;- gameServer: WebSocketServer&#10;- currentRound: int&#10;- serverId: UUID&#10;- serverName:String&#10;- settings: GameSettings" style="text;strokeColor=none;fillColor=none;align=left;verticalAlign=top;spacingLeft=4;spacingRight=4;overflow=hidden;rotatable=0;points=[[0,0.5],[1,0.5]];portConstraint=eastwest;fontColor=#FFFFFF;" parent="21" vertex="1">
                    <mxGeometry y="26" width="280" height="144" as="geometry"/>
                </mxCell>
                <mxCell id="23" value="" style="line;strokeWidth=1;fillColor=none;align=left;verticalAlign=middle;spacingTop=-1;spacingLeft=3;spacingRight=3;rotatable=0;labelPosition=right;points=[];portConstraint=eastwest;" parent="21" vertex="1">
                    <mxGeometry y="170" width="280" height="8" as="geometry"/>
                </mxCell>
                <mxCell id="24" value="+ getHand(Player:player) : Hand&#10;+ getQuestion(): CardQuestion&#10;+ getGameBoard(): GameBoard&#10;&#10;+ setDealer()&#10;+ gamePause()" style="text;strokeColor=none;fillColor=none;align=left;verticalAlign=top;spacingLeft=4;spacingRight=4;overflow=hidden;rotatable=0;points=[[0,0.5],[1,0.5]];portConstraint=eastwest;fontColor=#FFFFFF;" parent="21" vertex="1">
                    <mxGeometry y="178" width="280" height="142" as="geometry"/>
                </mxCell>
                <mxCell id="31" value="cahQuestionCard" style="swimlane;fontStyle=1;align=center;verticalAlign=top;childLayout=stackLayout;horizontal=1;startSize=26;horizontalStack=0;resizeParent=1;resizeParentMax=0;resizeLast=0;collapsible=1;marginBottom=0;" parent="6" vertex="1">
                    <mxGeometry x="210" y="200" width="160" height="164" as="geometry"/>
                </mxCell>
                <mxCell id="32" value="- cardPick: int&#10;- cardDraw: int" style="text;strokeColor=none;fillColor=none;align=left;verticalAlign=top;spacingLeft=4;spacingRight=4;overflow=hidden;rotatable=0;points=[[0,0.5],[1,0.5]];portConstraint=eastwest;fontColor=#FFFFFF;" parent="31" vertex="1">
                    <mxGeometry y="26" width="160" height="104" as="geometry"/>
                </mxCell>
                <mxCell id="33" value="" style="line;strokeWidth=1;fillColor=none;align=left;verticalAlign=middle;spacingTop=-1;spacingLeft=3;spacingRight=3;rotatable=0;labelPosition=right;points=[];portConstraint=eastwest;" parent="31" vertex="1">
                    <mxGeometry y="130" width="160" height="8" as="geometry"/>
                </mxCell>
                <mxCell id="34" value="@Data Lombok" style="text;strokeColor=none;fillColor=none;align=left;verticalAlign=top;spacingLeft=4;spacingRight=4;overflow=hidden;rotatable=0;points=[[0,0.5],[1,0.5]];portConstraint=eastwest;" parent="31" vertex="1">
                    <mxGeometry y="138" width="160" height="26" as="geometry"/>
                </mxCell>
                <mxCell id="4" value="base" style="shape=folder;fontStyle=1;tabWidth=110;tabHeight=30;tabPosition=left;html=1;boundedLbl=1;labelInHeader=1;container=1;collapsible=0;recursiveResize=0;" parent="2" vertex="1">
                    <mxGeometry x="20" y="50" width="180" height="980" as="geometry"/>
                </mxCell>
                <mxCell id="7" value="User" style="swimlane;fontStyle=1;align=center;verticalAlign=top;childLayout=stackLayout;horizontal=1;startSize=26;horizontalStack=0;resizeParent=1;resizeParentMax=0;resizeLast=0;collapsible=1;marginBottom=0;" parent="4" vertex="1">
                    <mxGeometry x="10" y="40" width="160" height="134" as="geometry"/>
                </mxCell>
                <mxCell id="8" value="- userName: String&#10;- passPhrase: String&#10;- userEmail:String&#10;- userAvatar:String" style="text;strokeColor=none;fillColor=none;align=left;verticalAlign=top;spacingLeft=4;spacingRight=4;overflow=hidden;rotatable=0;points=[[0,0.5],[1,0.5]];portConstraint=eastwest;" parent="7" vertex="1">
                    <mxGeometry y="26" width="160" height="74" as="geometry"/>
                </mxCell>
                <mxCell id="9" value="" style="line;strokeWidth=1;fillColor=none;align=left;verticalAlign=middle;spacingTop=-1;spacingLeft=3;spacingRight=3;rotatable=0;labelPosition=right;points=[];portConstraint=eastwest;" parent="7" vertex="1">
                    <mxGeometry y="100" width="160" height="8" as="geometry"/>
                </mxCell>
                <mxCell id="10" value="+ method(type): type" style="text;strokeColor=none;fillColor=none;align=left;verticalAlign=top;spacingLeft=4;spacingRight=4;overflow=hidden;rotatable=0;points=[[0,0.5],[1,0.5]];portConstraint=eastwest;" parent="7" vertex="1">
                    <mxGeometry y="108" width="160" height="26" as="geometry"/>
                </mxCell>
                <mxCell id="26" value="cahGameServer" style="swimlane;fontStyle=1;align=center;verticalAlign=top;childLayout=stackLayout;horizontal=1;startSize=26;horizontalStack=0;resizeParent=1;resizeParentMax=0;resizeLast=0;collapsible=1;marginBottom=0;" parent="4" vertex="1">
                    <mxGeometry x="10" y="400" width="160" height="134" as="geometry"/>
                </mxCell>
                <mxCell id="27" value="- hand:List&lt;Card&gt;" style="text;strokeColor=none;fillColor=none;align=left;verticalAlign=top;spacingLeft=4;spacingRight=4;overflow=hidden;rotatable=0;points=[[0,0.5],[1,0.5]];portConstraint=eastwest;" parent="26" vertex="1">
                    <mxGeometry y="26" width="160" height="74" as="geometry"/>
                </mxCell>
                <mxCell id="28" value="" style="line;strokeWidth=1;fillColor=none;align=left;verticalAlign=middle;spacingTop=-1;spacingLeft=3;spacingRight=3;rotatable=0;labelPosition=right;points=[];portConstraint=eastwest;" parent="26" vertex="1">
                    <mxGeometry y="100" width="160" height="8" as="geometry"/>
                </mxCell>
                <mxCell id="29" value="+ method(type): type" style="text;strokeColor=none;fillColor=none;align=left;verticalAlign=top;spacingLeft=4;spacingRight=4;overflow=hidden;rotatable=0;points=[[0,0.5],[1,0.5]];portConstraint=eastwest;" parent="26" vertex="1">
                    <mxGeometry y="108" width="160" height="26" as="geometry"/>
                </mxCell>
                <mxCell id="15" value="" style="edgeStyle=orthogonalEdgeStyle;rounded=0;orthogonalLoop=1;jettySize=auto;html=1;" parent="2" source="7" target="11" edge="1">
                    <mxGeometry relative="1" as="geometry"/>
                </mxCell>
                <mxCell id="60" style="edgeStyle=orthogonalEdgeStyle;curved=1;orthogonalLoop=1;jettySize=auto;html=1;entryX=0.5;entryY=1;entryDx=0;entryDy=0;entryPerimeter=0;fontColor=#FFFFFF;" parent="2" source="27" target="24" edge="1">
                    <mxGeometry relative="1" as="geometry"/>
                </mxCell>
                <mxCell id="58" value="controller" style="shape=folder;fontStyle=1;tabWidth=110;tabHeight=30;tabPosition=left;html=1;boundedLbl=1;labelInHeader=1;container=1;collapsible=0;recursiveResize=0;fontColor=#FFFFFF;" parent="1" vertex="1">
                    <mxGeometry x="1030" y="20" width="660" height="260" as="geometry"/>
                </mxCell>
                <mxCell id="61" value="storage" style="shape=folder;fontStyle=1;tabWidth=110;tabHeight=30;tabPosition=left;html=1;boundedLbl=1;labelInHeader=1;container=1;collapsible=0;recursiveResize=0;fontColor=#FFFFFF;" parent="1" vertex="1">
                    <mxGeometry x="1040" y="380" width="660" height="260" as="geometry"/>
                </mxCell>
                <mxCell id="62" value="service" style="shape=folder;fontStyle=1;tabWidth=110;tabHeight=30;tabPosition=left;html=1;boundedLbl=1;labelInHeader=1;container=1;collapsible=0;recursiveResize=0;fontColor=#FFFFFF;" parent="1" vertex="1">
                    <mxGeometry x="1040" y="770" width="660" height="260" as="geometry"/>
                </mxCell>
                <mxCell id="63" value="dto" style="shape=folder;fontStyle=1;tabWidth=110;tabHeight=30;tabPosition=left;html=1;boundedLbl=1;labelInHeader=1;container=1;collapsible=0;recursiveResize=0;fontColor=#FFFFFF;" parent="1" vertex="1">
                    <mxGeometry x="1760" y="20" width="1390" height="1640" as="geometry"/>
                </mxCell>
                <mxCell id="64" value="http" style="shape=folder;fontStyle=1;tabWidth=110;tabHeight=30;tabPosition=left;html=1;boundedLbl=1;labelInHeader=1;container=1;collapsible=0;recursiveResize=0;fontColor=#FFFFFF;" parent="63" vertex="1">
                    <mxGeometry x="40" y="81" width="660" height="269" as="geometry"/>
                </mxCell>
                <mxCell id="71" value="request" style="shape=folder;fontStyle=1;tabWidth=110;tabHeight=30;tabPosition=left;html=1;boundedLbl=1;labelInHeader=1;container=1;collapsible=0;recursiveResize=0;fontColor=#FFFFFF;" parent="64" vertex="1">
                    <mxGeometry x="20" y="39" width="230" height="230" as="geometry"/>
                </mxCell>
                <mxCell id="65" value="websocket" style="shape=folder;fontStyle=1;tabWidth=110;tabHeight=30;tabPosition=left;html=1;boundedLbl=1;labelInHeader=1;container=1;collapsible=0;recursiveResize=0;fontColor=#FFFFFF;" parent="63" vertex="1">
                    <mxGeometry x="40" y="400" width="660" height="300" as="geometry"/>
                </mxCell>
                <mxCell id="74" value="request" style="shape=folder;fontStyle=1;tabWidth=110;tabHeight=30;tabPosition=left;html=1;boundedLbl=1;labelInHeader=1;container=1;collapsible=0;recursiveResize=0;fontColor=#FFFFFF;" parent="65" vertex="1">
                    <mxGeometry x="30" y="50" width="230" height="230" as="geometry"/>
                </mxCell>
                <mxCell id="75" value="response" style="shape=folder;fontStyle=1;tabWidth=110;tabHeight=30;tabPosition=left;html=1;boundedLbl=1;labelInHeader=1;container=1;collapsible=0;recursiveResize=0;fontColor=#FFFFFF;" parent="65" vertex="1">
                    <mxGeometry x="330" y="60" width="210" height="240" as="geometry"/>
                </mxCell>
                <mxCell id="66" value="config" style="shape=folder;fontStyle=1;tabWidth=110;tabHeight=30;tabPosition=left;html=1;boundedLbl=1;labelInHeader=1;container=1;collapsible=0;recursiveResize=0;fontColor=#FFFFFF;" parent="63" vertex="1">
                    <mxGeometry x="730" y="90" width="660" height="260" as="geometry"/>
                </mxCell>
                <mxCell id="67" value="server" style="shape=folder;fontStyle=1;tabWidth=110;tabHeight=30;tabPosition=left;html=1;boundedLbl=1;labelInHeader=1;container=1;collapsible=0;recursiveResize=0;fontColor=#FFFFFF;" parent="63" vertex="1">
                    <mxGeometry x="730" y="410" width="660" height="260" as="geometry"/>
                </mxCell>
                <mxCell id="68" value="model" style="shape=folder;fontStyle=1;tabWidth=110;tabHeight=30;tabPosition=left;html=1;boundedLbl=1;labelInHeader=1;container=1;collapsible=0;recursiveResize=0;fontColor=#FFFFFF;" parent="63" vertex="1">
                    <mxGeometry x="721" y="690" width="660" height="260" as="geometry"/>
                </mxCell>
                <mxCell id="69" value="status" style="shape=folder;fontStyle=1;tabWidth=110;tabHeight=30;tabPosition=left;html=1;boundedLbl=1;labelInHeader=1;container=1;collapsible=0;recursiveResize=0;fontColor=#FFFFFF;" parent="1" vertex="1">
                    <mxGeometry x="2481" y="980" width="660" height="260" as="geometry"/>
                </mxCell>
                <mxCell id="72" value="response" style="shape=folder;fontStyle=1;tabWidth=110;tabHeight=30;tabPosition=left;html=1;boundedLbl=1;labelInHeader=1;container=1;collapsible=0;recursiveResize=0;fontColor=#FFFFFF;" parent="1" vertex="1">
                    <mxGeometry x="2140" y="150" width="210" height="240" as="geometry"/>
                </mxCell>
                <mxCell id="NCn-pG2Vn2AwwK3f74ER-76" value="model" style="shape=folder;fontStyle=1;tabWidth=110;tabHeight=30;tabPosition=left;html=1;boundedLbl=1;labelInHeader=1;container=1;collapsible=0;recursiveResize=0;" parent="1" vertex="1">
                    <mxGeometry x="40" y="1700" width="1000" height="1060" as="geometry"/>
                </mxCell>
                <mxCell id="NCn-pG2Vn2AwwK3f74ER-77" value="cah" style="shape=folder;fontStyle=1;tabWidth=110;tabHeight=30;tabPosition=left;html=1;boundedLbl=1;labelInHeader=1;container=1;collapsible=0;recursiveResize=0;" parent="NCn-pG2Vn2AwwK3f74ER-76" vertex="1">
                    <mxGeometry x="240" y="50" width="700" height="390" as="geometry"/>
                </mxCell>
                <mxCell id="NCn-pG2Vn2AwwK3f74ER-78" value="" style="edgeStyle=orthogonalEdgeStyle;orthogonalLoop=1;jettySize=auto;html=1;curved=1;" parent="NCn-pG2Vn2AwwK3f74ER-77" source="NCn-pG2Vn2AwwK3f74ER-80" target="NCn-pG2Vn2AwwK3f74ER-85" edge="1">
                    <mxGeometry relative="1" as="geometry"/>
                </mxCell>
                <mxCell id="NCn-pG2Vn2AwwK3f74ER-79" value="" style="edgeStyle=orthogonalEdgeStyle;curved=1;orthogonalLoop=1;jettySize=auto;html=1;entryX=0;entryY=0.5;entryDx=0;entryDy=0;" parent="NCn-pG2Vn2AwwK3f74ER-77" source="NCn-pG2Vn2AwwK3f74ER-80" target="NCn-pG2Vn2AwwK3f74ER-90" edge="1">
                    <mxGeometry relative="1" as="geometry"/>
                </mxCell>
                <mxCell id="NCn-pG2Vn2AwwK3f74ER-80" value="cahPlayer" style="swimlane;fontStyle=1;align=center;verticalAlign=top;childLayout=stackLayout;horizontal=1;startSize=26;horizontalStack=0;resizeParent=1;resizeParentMax=0;resizeLast=0;collapsible=1;marginBottom=0;" parent="NCn-pG2Vn2AwwK3f74ER-77" vertex="1">
                    <mxGeometry x="20" y="40" width="160" height="134" as="geometry"/>
                </mxCell>
                <mxCell id="NCn-pG2Vn2AwwK3f74ER-81" value="- hand:List&lt;Card&gt;&#10;- isHost" style="text;strokeColor=none;fillColor=none;align=left;verticalAlign=top;spacingLeft=4;spacingRight=4;overflow=hidden;rotatable=0;points=[[0,0.5],[1,0.5]];portConstraint=eastwest;" parent="NCn-pG2Vn2AwwK3f74ER-80" vertex="1">
                    <mxGeometry y="26" width="160" height="74" as="geometry"/>
                </mxCell>
                <mxCell id="NCn-pG2Vn2AwwK3f74ER-82" value="" style="line;strokeWidth=1;fillColor=none;align=left;verticalAlign=middle;spacingTop=-1;spacingLeft=3;spacingRight=3;rotatable=0;labelPosition=right;points=[];portConstraint=eastwest;" parent="NCn-pG2Vn2AwwK3f74ER-80" vertex="1">
                    <mxGeometry y="100" width="160" height="8" as="geometry"/>
                </mxCell>
                <mxCell id="NCn-pG2Vn2AwwK3f74ER-83" value="+ method(type): type" style="text;strokeColor=none;fillColor=none;align=left;verticalAlign=top;spacingLeft=4;spacingRight=4;overflow=hidden;rotatable=0;points=[[0,0.5],[1,0.5]];portConstraint=eastwest;" parent="NCn-pG2Vn2AwwK3f74ER-80" vertex="1">
                    <mxGeometry y="108" width="160" height="26" as="geometry"/>
                </mxCell>
                <mxCell id="NCn-pG2Vn2AwwK3f74ER-84" value="" style="edgeStyle=orthogonalEdgeStyle;curved=1;orthogonalLoop=1;jettySize=auto;html=1;" parent="NCn-pG2Vn2AwwK3f74ER-77" source="NCn-pG2Vn2AwwK3f74ER-85" target="NCn-pG2Vn2AwwK3f74ER-93" edge="1">
                    <mxGeometry relative="1" as="geometry"/>
                </mxCell>
                <mxCell id="NCn-pG2Vn2AwwK3f74ER-85" value="cahCard" style="swimlane;fontStyle=1;align=center;verticalAlign=top;childLayout=stackLayout;horizontal=1;startSize=26;horizontalStack=0;resizeParent=1;resizeParentMax=0;resizeLast=0;collapsible=1;marginBottom=0;" parent="NCn-pG2Vn2AwwK3f74ER-77" vertex="1">
                    <mxGeometry x="20" y="200" width="160" height="164" as="geometry"/>
                </mxCell>
                <mxCell id="NCn-pG2Vn2AwwK3f74ER-86" value="- cardId :UUID/int&#10;- cardText: String&#10;- cardSet :String&#10;- cardImage_url: String&#10;" style="text;strokeColor=none;fillColor=none;align=left;verticalAlign=top;spacingLeft=4;spacingRight=4;overflow=hidden;rotatable=0;points=[[0,0.5],[1,0.5]];portConstraint=eastwest;" parent="NCn-pG2Vn2AwwK3f74ER-85" vertex="1">
                    <mxGeometry y="26" width="160" height="104" as="geometry"/>
                </mxCell>
                <mxCell id="NCn-pG2Vn2AwwK3f74ER-87" value="" style="line;strokeWidth=1;fillColor=none;align=left;verticalAlign=middle;spacingTop=-1;spacingLeft=3;spacingRight=3;rotatable=0;labelPosition=right;points=[];portConstraint=eastwest;" parent="NCn-pG2Vn2AwwK3f74ER-85" vertex="1">
                    <mxGeometry y="130" width="160" height="8" as="geometry"/>
                </mxCell>
                <mxCell id="NCn-pG2Vn2AwwK3f74ER-88" value="@Data Lombok" style="text;strokeColor=none;fillColor=none;align=left;verticalAlign=top;spacingLeft=4;spacingRight=4;overflow=hidden;rotatable=0;points=[[0,0.5],[1,0.5]];portConstraint=eastwest;" parent="NCn-pG2Vn2AwwK3f74ER-85" vertex="1">
                    <mxGeometry y="138" width="160" height="26" as="geometry"/>
                </mxCell>
                <mxCell id="NCn-pG2Vn2AwwK3f74ER-89" value="cahGameServer" style="swimlane;fontStyle=1;align=center;verticalAlign=top;childLayout=stackLayout;horizontal=1;startSize=26;horizontalStack=0;resizeParent=1;resizeParentMax=0;resizeLast=0;collapsible=1;marginBottom=0;" parent="NCn-pG2Vn2AwwK3f74ER-77" vertex="1">
                    <mxGeometry x="400" y="40" width="280" height="320" as="geometry"/>
                </mxCell>
                <mxCell id="NCn-pG2Vn2AwwK3f74ER-90" value="- currentDealer : int&#10;- currentQuestion : CardQuestion&#10;- playerList : {player: Player, seat: int}[]&#10;- gameServer: WebSocketServer&#10;- currentRound: int&#10;- serverId: UUID&#10;- serverName:String&#10;- settings: GameSettings" style="text;strokeColor=none;fillColor=none;align=left;verticalAlign=top;spacingLeft=4;spacingRight=4;overflow=hidden;rotatable=0;points=[[0,0.5],[1,0.5]];portConstraint=eastwest;fontColor=#FFFFFF;" parent="NCn-pG2Vn2AwwK3f74ER-89" vertex="1">
                    <mxGeometry y="26" width="280" height="144" as="geometry"/>
                </mxCell>
                <mxCell id="NCn-pG2Vn2AwwK3f74ER-91" value="" style="line;strokeWidth=1;fillColor=none;align=left;verticalAlign=middle;spacingTop=-1;spacingLeft=3;spacingRight=3;rotatable=0;labelPosition=right;points=[];portConstraint=eastwest;" parent="NCn-pG2Vn2AwwK3f74ER-89" vertex="1">
                    <mxGeometry y="170" width="280" height="8" as="geometry"/>
                </mxCell>
                <mxCell id="NCn-pG2Vn2AwwK3f74ER-92" value="+ getHand(Player:player) : Hand&#10;+ getQuestion(): CardQuestion&#10;+ getGameBoard(): GameBoard&#10;&#10;+ setDealer()&#10;+ gamePause()" style="text;strokeColor=none;fillColor=none;align=left;verticalAlign=top;spacingLeft=4;spacingRight=4;overflow=hidden;rotatable=0;points=[[0,0.5],[1,0.5]];portConstraint=eastwest;fontColor=#FFFFFF;" parent="NCn-pG2Vn2AwwK3f74ER-89" vertex="1">
                    <mxGeometry y="178" width="280" height="142" as="geometry"/>
                </mxCell>
                <mxCell id="NCn-pG2Vn2AwwK3f74ER-93" value="cahQuestionCard" style="swimlane;fontStyle=1;align=center;verticalAlign=top;childLayout=stackLayout;horizontal=1;startSize=26;horizontalStack=0;resizeParent=1;resizeParentMax=0;resizeLast=0;collapsible=1;marginBottom=0;" parent="NCn-pG2Vn2AwwK3f74ER-77" vertex="1">
                    <mxGeometry x="210" y="200" width="160" height="164" as="geometry"/>
                </mxCell>
                <mxCell id="NCn-pG2Vn2AwwK3f74ER-94" value="- cardPick: int&#10;- cardDraw: int" style="text;strokeColor=none;fillColor=none;align=left;verticalAlign=top;spacingLeft=4;spacingRight=4;overflow=hidden;rotatable=0;points=[[0,0.5],[1,0.5]];portConstraint=eastwest;fontColor=#FFFFFF;" parent="NCn-pG2Vn2AwwK3f74ER-93" vertex="1">
                    <mxGeometry y="26" width="160" height="104" as="geometry"/>
                </mxCell>
                <mxCell id="NCn-pG2Vn2AwwK3f74ER-95" value="" style="line;strokeWidth=1;fillColor=none;align=left;verticalAlign=middle;spacingTop=-1;spacingLeft=3;spacingRight=3;rotatable=0;labelPosition=right;points=[];portConstraint=eastwest;" parent="NCn-pG2Vn2AwwK3f74ER-93" vertex="1">
                    <mxGeometry y="130" width="160" height="8" as="geometry"/>
                </mxCell>
                <mxCell id="NCn-pG2Vn2AwwK3f74ER-96" value="@Data Lombok" style="text;strokeColor=none;fillColor=none;align=left;verticalAlign=top;spacingLeft=4;spacingRight=4;overflow=hidden;rotatable=0;points=[[0,0.5],[1,0.5]];portConstraint=eastwest;" parent="NCn-pG2Vn2AwwK3f74ER-93" vertex="1">
                    <mxGeometry y="138" width="160" height="26" as="geometry"/>
                </mxCell>
                <mxCell id="NCn-pG2Vn2AwwK3f74ER-97" value="base" style="shape=folder;fontStyle=1;tabWidth=110;tabHeight=30;tabPosition=left;html=1;boundedLbl=1;labelInHeader=1;container=1;collapsible=0;recursiveResize=0;" parent="NCn-pG2Vn2AwwK3f74ER-76" vertex="1">
                    <mxGeometry x="20" y="50" width="180" height="980" as="geometry"/>
                </mxCell>
                <mxCell id="NCn-pG2Vn2AwwK3f74ER-98" value="User" style="swimlane;fontStyle=1;align=center;verticalAlign=top;childLayout=stackLayout;horizontal=1;startSize=26;horizontalStack=0;resizeParent=1;resizeParentMax=0;resizeLast=0;collapsible=1;marginBottom=0;" parent="NCn-pG2Vn2AwwK3f74ER-97" vertex="1">
                    <mxGeometry x="10" y="40" width="160" height="134" as="geometry"/>
                </mxCell>
                <mxCell id="NCn-pG2Vn2AwwK3f74ER-99" value="- userName: String&#10;- passPhrase: String&#10;- userEmail:String&#10;- userAvatar:String" style="text;strokeColor=none;fillColor=none;align=left;verticalAlign=top;spacingLeft=4;spacingRight=4;overflow=hidden;rotatable=0;points=[[0,0.5],[1,0.5]];portConstraint=eastwest;" parent="NCn-pG2Vn2AwwK3f74ER-98" vertex="1">
                    <mxGeometry y="26" width="160" height="74" as="geometry"/>
                </mxCell>
                <mxCell id="NCn-pG2Vn2AwwK3f74ER-100" value="" style="line;strokeWidth=1;fillColor=none;align=left;verticalAlign=middle;spacingTop=-1;spacingLeft=3;spacingRight=3;rotatable=0;labelPosition=right;points=[];portConstraint=eastwest;" parent="NCn-pG2Vn2AwwK3f74ER-98" vertex="1">
                    <mxGeometry y="100" width="160" height="8" as="geometry"/>
                </mxCell>
                <mxCell id="NCn-pG2Vn2AwwK3f74ER-101" value="+ method(type): type" style="text;strokeColor=none;fillColor=none;align=left;verticalAlign=top;spacingLeft=4;spacingRight=4;overflow=hidden;rotatable=0;points=[[0,0.5],[1,0.5]];portConstraint=eastwest;" parent="NCn-pG2Vn2AwwK3f74ER-98" vertex="1">
                    <mxGeometry y="108" width="160" height="26" as="geometry"/>
                </mxCell>
                <mxCell id="NCn-pG2Vn2AwwK3f74ER-102" value="cahGameServer" style="swimlane;fontStyle=1;align=center;verticalAlign=top;childLayout=stackLayout;horizontal=1;startSize=26;horizontalStack=0;resizeParent=1;resizeParentMax=0;resizeLast=0;collapsible=1;marginBottom=0;" parent="NCn-pG2Vn2AwwK3f74ER-97" vertex="1">
                    <mxGeometry x="10" y="400" width="160" height="134" as="geometry"/>
                </mxCell>
                <mxCell id="NCn-pG2Vn2AwwK3f74ER-103" value="- hand:List&lt;Card&gt;" style="text;strokeColor=none;fillColor=none;align=left;verticalAlign=top;spacingLeft=4;spacingRight=4;overflow=hidden;rotatable=0;points=[[0,0.5],[1,0.5]];portConstraint=eastwest;" parent="NCn-pG2Vn2AwwK3f74ER-102" vertex="1">
                    <mxGeometry y="26" width="160" height="74" as="geometry"/>
                </mxCell>
                <mxCell id="NCn-pG2Vn2AwwK3f74ER-104" value="" style="line;strokeWidth=1;fillColor=none;align=left;verticalAlign=middle;spacingTop=-1;spacingLeft=3;spacingRight=3;rotatable=0;labelPosition=right;points=[];portConstraint=eastwest;" parent="NCn-pG2Vn2AwwK3f74ER-102" vertex="1">
                    <mxGeometry y="100" width="160" height="8" as="geometry"/>
                </mxCell>
                <mxCell id="NCn-pG2Vn2AwwK3f74ER-105" value="+ method(type): type" style="text;strokeColor=none;fillColor=none;align=left;verticalAlign=top;spacingLeft=4;spacingRight=4;overflow=hidden;rotatable=0;points=[[0,0.5],[1,0.5]];portConstraint=eastwest;" parent="NCn-pG2Vn2AwwK3f74ER-102" vertex="1">
                    <mxGeometry y="108" width="160" height="26" as="geometry"/>
                </mxCell>
                <mxCell id="NCn-pG2Vn2AwwK3f74ER-106" value="" style="edgeStyle=orthogonalEdgeStyle;rounded=0;orthogonalLoop=1;jettySize=auto;html=1;" parent="NCn-pG2Vn2AwwK3f74ER-76" source="NCn-pG2Vn2AwwK3f74ER-98" target="NCn-pG2Vn2AwwK3f74ER-80" edge="1">
                    <mxGeometry relative="1" as="geometry"/>
                </mxCell>
                <mxCell id="NCn-pG2Vn2AwwK3f74ER-107" style="edgeStyle=orthogonalEdgeStyle;curved=1;orthogonalLoop=1;jettySize=auto;html=1;entryX=0.5;entryY=1;entryDx=0;entryDy=0;entryPerimeter=0;fontColor=#FFFFFF;" parent="NCn-pG2Vn2AwwK3f74ER-76" source="NCn-pG2Vn2AwwK3f74ER-103" target="NCn-pG2Vn2AwwK3f74ER-92" edge="1">
                    <mxGeometry relative="1" as="geometry"/>
                </mxCell>
                <mxCell id="NCn-pG2Vn2AwwK3f74ER-108" value="controller" style="shape=folder;fontStyle=1;tabWidth=110;tabHeight=30;tabPosition=left;html=1;boundedLbl=1;labelInHeader=1;container=1;collapsible=0;recursiveResize=0;fontColor=#FFFFFF;" parent="1" vertex="1">
                    <mxGeometry x="1070" y="1700" width="660" height="260" as="geometry"/>
                </mxCell>
                <mxCell id="NCn-pG2Vn2AwwK3f74ER-122" value="" style="rounded=0;whiteSpace=wrap;html=1;" parent="NCn-pG2Vn2AwwK3f74ER-108" vertex="1">
                    <mxGeometry x="30" y="54" width="120" height="60" as="geometry"/>
                </mxCell>
                <mxCell id="NCn-pG2Vn2AwwK3f74ER-109" value="storage" style="shape=folder;fontStyle=1;tabWidth=110;tabHeight=30;tabPosition=left;html=1;boundedLbl=1;labelInHeader=1;container=1;collapsible=0;recursiveResize=0;fontColor=#FFFFFF;" parent="1" vertex="1">
                    <mxGeometry x="1080" y="2060" width="660" height="260" as="geometry"/>
                </mxCell>
                <mxCell id="NCn-pG2Vn2AwwK3f74ER-110" value="service" style="shape=folder;fontStyle=1;tabWidth=110;tabHeight=30;tabPosition=left;html=1;boundedLbl=1;labelInHeader=1;container=1;collapsible=0;recursiveResize=0;fontColor=#FFFFFF;" parent="1" vertex="1">
                    <mxGeometry x="1080" y="2450" width="660" height="260" as="geometry"/>
                </mxCell>
                <mxCell id="NCn-pG2Vn2AwwK3f74ER-111" value="dto" style="shape=folder;fontStyle=1;tabWidth=110;tabHeight=30;tabPosition=left;html=1;boundedLbl=1;labelInHeader=1;container=1;collapsible=0;recursiveResize=0;fontColor=#FFFFFF;" parent="1" vertex="1">
                    <mxGeometry x="1800" y="1700" width="1390" height="1640" as="geometry"/>
                </mxCell>
                <mxCell id="NCn-pG2Vn2AwwK3f74ER-112" value="http" style="shape=folder;fontStyle=1;tabWidth=110;tabHeight=30;tabPosition=left;html=1;boundedLbl=1;labelInHeader=1;container=1;collapsible=0;recursiveResize=0;fontColor=#FFFFFF;" parent="NCn-pG2Vn2AwwK3f74ER-111" vertex="1">
                    <mxGeometry x="40" y="81" width="660" height="269" as="geometry"/>
                </mxCell>
                <mxCell id="NCn-pG2Vn2AwwK3f74ER-113" value="request" style="shape=folder;fontStyle=1;tabWidth=110;tabHeight=30;tabPosition=left;html=1;boundedLbl=1;labelInHeader=1;container=1;collapsible=0;recursiveResize=0;fontColor=#FFFFFF;" parent="NCn-pG2Vn2AwwK3f74ER-112" vertex="1">
                    <mxGeometry x="20" y="39" width="230" height="230" as="geometry"/>
                </mxCell>
                <mxCell id="NCn-pG2Vn2AwwK3f74ER-114" value="websocket" style="shape=folder;fontStyle=1;tabWidth=110;tabHeight=30;tabPosition=left;html=1;boundedLbl=1;labelInHeader=1;container=1;collapsible=0;recursiveResize=0;fontColor=#FFFFFF;" parent="NCn-pG2Vn2AwwK3f74ER-111" vertex="1">
                    <mxGeometry x="40" y="400" width="660" height="300" as="geometry"/>
                </mxCell>
                <mxCell id="NCn-pG2Vn2AwwK3f74ER-115" value="request" style="shape=folder;fontStyle=1;tabWidth=110;tabHeight=30;tabPosition=left;html=1;boundedLbl=1;labelInHeader=1;container=1;collapsible=0;recursiveResize=0;fontColor=#FFFFFF;" parent="NCn-pG2Vn2AwwK3f74ER-114" vertex="1">
                    <mxGeometry x="30" y="50" width="230" height="230" as="geometry"/>
                </mxCell>
                <mxCell id="NCn-pG2Vn2AwwK3f74ER-116" value="response" style="shape=folder;fontStyle=1;tabWidth=110;tabHeight=30;tabPosition=left;html=1;boundedLbl=1;labelInHeader=1;container=1;collapsible=0;recursiveResize=0;fontColor=#FFFFFF;" parent="NCn-pG2Vn2AwwK3f74ER-114" vertex="1">
                    <mxGeometry x="330" y="60" width="210" height="240" as="geometry"/>
                </mxCell>
                <mxCell id="NCn-pG2Vn2AwwK3f74ER-117" value="config" style="shape=folder;fontStyle=1;tabWidth=110;tabHeight=30;tabPosition=left;html=1;boundedLbl=1;labelInHeader=1;container=1;collapsible=0;recursiveResize=0;fontColor=#FFFFFF;" parent="NCn-pG2Vn2AwwK3f74ER-111" vertex="1">
                    <mxGeometry x="730" y="90" width="660" height="260" as="geometry"/>
                </mxCell>
                <mxCell id="NCn-pG2Vn2AwwK3f74ER-118" value="server" style="shape=folder;fontStyle=1;tabWidth=110;tabHeight=30;tabPosition=left;html=1;boundedLbl=1;labelInHeader=1;container=1;collapsible=0;recursiveResize=0;fontColor=#FFFFFF;" parent="NCn-pG2Vn2AwwK3f74ER-111" vertex="1">
                    <mxGeometry x="730" y="410" width="660" height="260" as="geometry"/>
                </mxCell>
                <mxCell id="NCn-pG2Vn2AwwK3f74ER-119" value="model" style="shape=folder;fontStyle=1;tabWidth=110;tabHeight=30;tabPosition=left;html=1;boundedLbl=1;labelInHeader=1;container=1;collapsible=0;recursiveResize=0;fontColor=#FFFFFF;" parent="NCn-pG2Vn2AwwK3f74ER-111" vertex="1">
                    <mxGeometry x="721" y="690" width="660" height="260" as="geometry"/>
                </mxCell>
                <mxCell id="NCn-pG2Vn2AwwK3f74ER-120" value="storage" style="shape=folder;fontStyle=1;tabWidth=110;tabHeight=30;tabPosition=left;html=1;boundedLbl=1;labelInHeader=1;container=1;collapsible=0;recursiveResize=0;fontColor=#FFFFFF;" parent="1" vertex="1">
                    <mxGeometry x="2521" y="2660" width="660" height="260" as="geometry"/>
                </mxCell>
                <mxCell id="NCn-pG2Vn2AwwK3f74ER-121" value="response" style="shape=folder;fontStyle=1;tabWidth=110;tabHeight=30;tabPosition=left;html=1;boundedLbl=1;labelInHeader=1;container=1;collapsible=0;recursiveResize=0;fontColor=#FFFFFF;" parent="1" vertex="1">
                    <mxGeometry x="2180" y="1830" width="210" height="240" as="geometry"/>
                </mxCell>
            </root>
        </mxGraphModel>
    </diagram>
</mxfile>